<svg xmlns="http://www.w3.org/2000/svg" width="830" height="575" viewBox="0 0 830 575"><defs><marker id="arrow" markerWidth="9" markerHeight="9" refX="8" refY="4" orient="auto"><path d="M0,0 L8,4 L0,8" fill="none" stroke="#334155" stroke-width="1.4"/></marker></defs><rect width="100%" height="100%" fill="white"/><g font-family="Noto Sans CJK SC, sans-serif" fill="#111827"><rect x="35" y="25" width="760" height="65" rx="4" fill="#f5f7fa" stroke="#334155" stroke-width="2"/><text x="415.0" y="64.5" text-anchor="middle" font-size="19">用户问题 + 最近追问 + 可选指定文档</text><polyline points="415,90 415,125" fill="none" stroke="#334155" stroke-width="2" marker-end="url(#arrow)"/><rect x="35" y="125" width="760" height="85" rx="4" fill="#f5f7fa" stroke="#334155" stroke-width="2"/><text x="415.0" y="160.5" text-anchor="middle" font-size="19">本地文本相关性检索</text><text x="415.0" y="188.5" text-anchor="middle" font-size="19">素材、知识节点及文档 → 受限数量与长度的候选片段</text><polyline points="415,210 415,245" fill="none" stroke="#334155" stroke-width="2" marker-end="url(#arrow)"/><rect x="35" y="245" width="760" height="85" rx="4" fill="#f5f7fa" stroke="#334155" stroke-width="2"/><text x="415.0" y="280.5" text-anchor="middle" font-size="19">构造模型上下文并生成回答</text><text x="415.0" y="308.5" text-anchor="middle" font-size="19">候选内容 + 允许使用的来源 ID</text><polyline points="415,330 415,365" fill="none" stroke="#334155" stroke-width="2" marker-end="url(#arrow)"/><rect x="35" y="365" width="760" height="85" rx="4" fill="#f5f7fa" stroke="#334155" stroke-width="2"/><text x="415.0" y="400.5" text-anchor="middle" font-size="19">校验 sourceIds / nodeIds / noteIds</text><text x="415.0" y="428.5" text-anchor="middle" font-size="19">仅接受检索上下文中的引用</text><polyline points="415,450 415,485" fill="none" stroke="#334155" stroke-width="2" marker-end="url(#arrow)"/><rect x="35" y="485" width="760" height="65" rx="4" fill="#f5f7fa" stroke="#334155" stroke-width="2"/><text x="415.0" y="524.5" text-anchor="middle" font-size="19">显示回答与可追溯的引用链接</text></g></svg>